<?xml version="1.0"?>
<svg xmlns="http://www.w3.org/2000/svg" id="Outline" viewBox="0 0 512 512" width="512" height="512"><path d="M256,256a88,88,0,1,0,88,88A88.1,88.1,0,0,0,256,256Zm0,160a72,72,0,1,1,72-72A72.081,72.081,0,0,1,256,416Z"/><path d="M496,232V200a8,8,0,0,0-8-8H424V111.9c16.794-.4,32.419-2.061,44.647-4.779C480.39,104.512,496,99.69,496,88s-15.61-16.514-27.353-19.123C456.419,66.157,440.794,64.5,424,64.1V56a8,8,0,1,0-16,0v8.1c-16.794.4-32.419,2.061-44.647,4.779C351.61,71.484,336,76.306,336,88s15.61,16.514,27.353,19.123c12.228,2.718,27.853,4.377,44.647,4.779V192H392V176a8,8,0,0,0,0-16V136a8,8,0,0,0-8-8H272a8,8,0,0,0-8,8v24a8,8,0,0,0,0,16v24a8,8,0,0,0,8,8h32v26.03a119.87,119.87,0,0,0-96,0V208h32a8,8,0,0,0,8-8V176a8,8,0,0,0,0-16V136a8,8,0,0,0-8-8H128a8,8,0,0,0-8,8v24a8,8,0,0,0,0,16v16H104V111.9c16.794-.4,32.419-2.061,44.647-4.779C160.389,104.512,176,99.69,176,88s-15.611-16.514-27.353-19.123C136.419,66.157,120.794,64.5,104,64.1V56a8,8,0,1,0-16,0v8.1c-16.794.4-32.419,2.061-44.647,4.779C31.611,71.484,16,76.306,16,88s15.611,16.514,27.353,19.123C55.581,109.839,71.206,111.5,88,111.9V192H24a8,8,0,0,0-8,8v32a8,8,0,0,0,0,16v32a8,8,0,0,0,8,8H48V456a8,8,0,0,0,16,0V320h74.413A120.077,120.077,0,0,0,136,344q0,3.224.172,6.405c-.026.127-.059.251-.079.381l-16,104a8,8,0,0,0,6.691,9.123,8.1,8.1,0,0,0,1.226.094,8,8,0,0,0,7.9-6.785l10.057-65.37A120.081,120.081,0,0,0,160,415.924c0,.025,0,.05,0,.076v40a8,8,0,1,0,16,0v-22.64a119.759,119.759,0,0,0,160,0V456a8,8,0,1,0,16,0V416c0-.026,0-.051,0-.076a120.073,120.073,0,0,0,14.04-24.077l10.057,65.369a8,8,0,0,0,7.9,6.785,8.116,8.116,0,0,0,1.227-.094,8,8,0,0,0,6.69-9.123l-16-104c-.02-.13-.053-.255-.079-.383q.169-3.18.172-6.4a120.077,120.077,0,0,0-2.413-24H448V456a8,8,0,1,0,16,0V288h24a8,8,0,0,0,8-8V248a8,8,0,0,0,0-16ZM355.068,88c8.357-3.522,29.335-8,60.932-8s52.575,4.478,60.932,8C468.575,91.521,447.6,96,416,96S363.425,91.521,355.068,88Zm-320,0C43.424,84.476,64.4,80,96,80s52.576,4.478,60.931,8C148.576,91.521,127.6,96,96,96S43.424,91.521,35.069,88ZM480,232H352V208l128,0ZM352,248h96v24H352Zm24-56H352V176h24Zm-96-48h96v16H280Zm0,48V176h24v16Zm40-16h16v78.638a120.713,120.713,0,0,0-16-12.1ZM176,254.638V176h16v66.537A120.713,120.713,0,0,0,176,254.638ZM64,272V248h96v24Zm168-80H208V176h24Zm-96-48h96v16H136Zm0,32h24v16H136Zm24,32v24H32V208ZM32,272V248H48v24Zm32,32V288H88v16Zm40,0V288h45.9a119.418,119.418,0,0,0-7.032,16ZM256,448A104,104,0,1,1,360,344,104.118,104.118,0,0,1,256,448ZM362.1,288H408v16H369.136A119.418,119.418,0,0,0,362.1,288ZM448,304H424V288h24Zm16-32V248h16v24Z"/></svg>
