<svg aria-hidden="true" style="position: absolute; width: 0; height: 0; overflow: hidden;" version="1.1" xmlns="http://www.w3.org/2000/svg" xmlns:xlink="http://www.w3.org/1999/xlink">
    <defs>
        <symbol id="icon-logo" viewBox="0 0 512 512">
            <path d="M256,256a88,88,0,1,0,88,88A88.1,88.1,0,0,0,256,256Zm0,160a72,72,0,1,1,72-72A72.081,72.081,0,0,1,256,416Z"/><path d="M496,232V200a8,8,0,0,0-8-8H424V111.9c16.794-.4,32.419-2.061,44.647-4.779C480.39,104.512,496,99.69,496,88s-15.61-16.514-27.353-19.123C456.419,66.157,440.794,64.5,424,64.1V56a8,8,0,1,0-16,0v8.1c-16.794.4-32.419,2.061-44.647,4.779C351.61,71.484,336,76.306,336,88s15.61,16.514,27.353,19.123c12.228,2.718,27.853,4.377,44.647,4.779V192H392V176a8,8,0,0,0,0-16V136a8,8,0,0,0-8-8H272a8,8,0,0,0-8,8v24a8,8,0,0,0,0,16v24a8,8,0,0,0,8,8h32v26.03a119.87,119.87,0,0,0-96,0V208h32a8,8,0,0,0,8-8V176a8,8,0,0,0,0-16V136a8,8,0,0,0-8-8H128a8,8,0,0,0-8,8v24a8,8,0,0,0,0,16v16H104V111.9c16.794-.4,32.419-2.061,44.647-4.779C160.389,104.512,176,99.69,176,88s-15.611-16.514-27.353-19.123C136.419,66.157,120.794,64.5,104,64.1V56a8,8,0,1,0-16,0v8.1c-16.794.4-32.419,2.061-44.647,4.779C31.611,71.484,16,76.306,16,88s15.611,16.514,27.353,19.123C55.581,109.839,71.206,111.5,88,111.9V192H24a8,8,0,0,0-8,8v32a8,8,0,0,0,0,16v32a8,8,0,0,0,8,8H48V456a8,8,0,0,0,16,0V320h74.413A120.077,120.077,0,0,0,136,344q0,3.224.172,6.405c-.026.127-.059.251-.079.381l-16,104a8,8,0,0,0,6.691,9.123,8.1,8.1,0,0,0,1.226.094,8,8,0,0,0,7.9-6.785l10.057-65.37A120.081,120.081,0,0,0,160,415.924c0,.025,0,.05,0,.076v40a8,8,0,1,0,16,0v-22.64a119.759,119.759,0,0,0,160,0V456a8,8,0,1,0,16,0V416c0-.026,0-.051,0-.076a120.073,120.073,0,0,0,14.04-24.077l10.057,65.369a8,8,0,0,0,7.9,6.785,8.116,8.116,0,0,0,1.227-.094,8,8,0,0,0,6.69-9.123l-16-104c-.02-.13-.053-.255-.079-.383q.169-3.18.172-6.4a120.077,120.077,0,0,0-2.413-24H448V456a8,8,0,1,0,16,0V288h24a8,8,0,0,0,8-8V248a8,8,0,0,0,0-16ZM355.068,88c8.357-3.522,29.335-8,60.932-8s52.575,4.478,60.932,8C468.575,91.521,447.6,96,416,96S363.425,91.521,355.068,88Zm-320,0C43.424,84.476,64.4,80,96,80s52.576,4.478,60.931,8C148.576,91.521,127.6,96,96,96S43.424,91.521,35.069,88ZM480,232H352V208l128,0ZM352,248h96v24H352Zm24-56H352V176h24Zm-96-48h96v16H280Zm0,48V176h24v16Zm40-16h16v78.638a120.713,120.713,0,0,0-16-12.1ZM176,254.638V176h16v66.537A120.713,120.713,0,0,0,176,254.638ZM64,272V248h96v24Zm168-80H208V176h24Zm-96-48h96v16H136Zm0,32h24v16H136Zm24,32v24H32V208ZM32,272V248H48v24Zm32,32V288H88v16Zm40,0V288h45.9a119.418,119.418,0,0,0-7.032,16ZM256,448A104,104,0,1,1,360,344,104.118,104.118,0,0,1,256,448ZM362.1,288H408v16H369.136A119.418,119.418,0,0,0,362.1,288ZM448,304H424V288h24Zm16-32V248h16v24Z"/>
        </symbol>
        <symbol id="icon-eighth-notes" viewBox="0 0 32 32">
            <path d="M30 0h2v23c0 2.761-3.134 5-7 5s-7-2.239-7-5c0-2.761 3.134-5 7-5 1.959 0 3.729 0.575 5 1.501v-11.501l-16 3.556v15.444c0 2.761-3.134 5-7 5s-7-2.239-7-5c0-2.761 3.134-5 7-5 1.959 0 3.729 0.575 5 1.501v-19.501l18-4z"></path>
        </symbol>
        <symbol id="icon-metronome" viewBox="0 0 314 314">
        <path d="M281.853,46.631c-0.39-2.035-1.66-3.794-3.47-4.802l-11.257-6.271l5.297-9.511c1.881-3.378,0.668-7.641-2.709-9.521
	c-3.38-1.881-7.641-0.667-9.521,2.709l-5.297,9.511l-11.257-6.269c-1.81-1.008-3.975-1.162-5.908-0.422
	c-1.936,0.74-3.442,2.3-4.117,4.259l-13.806,40.109c-1.103,3.207,0.25,6.743,3.213,8.394l4.741,2.642l-23.115,41.501L184.592,17.11
	C182.703,7.516,173.563,0,163.783,0h-56.052c-9.778,0-18.918,7.516-20.809,17.11L46.102,224.425
	c-0.002,0.012-0.004,0.023-0.006,0.035l-13.729,69.725c-0.998,5.067,0.205,10.132,3.3,13.895C38.76,311.842,43.496,314,48.66,314
	h174.195c5.163,0,9.898-2.158,12.993-5.92c3.095-3.763,4.298-8.827,3.301-13.896l-13.732-69.741
	c-0.001-0.002-0.001-0.004-0.001-0.004l-16.584-84.225l31.16-55.944l4.742,2.642c1.072,0.598,2.243,0.885,3.402,0.885
	c2.046,0,4.056-0.896,5.425-2.571l26.836-32.853C281.708,50.769,282.241,48.665,281.853,46.631z M100.659,19.816
	c0.6-3.044,3.971-5.816,7.072-5.816h56.052c3.103,0,6.473,2.771,7.072,5.815l23.249,118.069L164,191.933
	c-6.17-2.645-13.121-4.627-21.242-5.363v-14.92h10.96c3.866,0,7-3.134,7-7s-3.134-7-7-7h-10.96v-41.211h10.96c3.866,0,7-3.134,7-7
	c0-3.866-3.134-7-7-7h-10.96v-41.21h10.96c3.866,0,7-3.134,7-7s-3.134-7-7-7h-10.96V34.938c0-3.866-3.134-7-7-7
	c-3.866,0-7,3.134-7,7v12.291h-10.96c-3.866,0-7,3.134-7,7s3.134,7,7,7h10.96v41.21h-10.96c-3.866,0-7,3.134-7,7
	c0,3.866,3.134,7,7,7h10.96v41.211h-10.96c-3.866,0-7,3.134-7,7s3.134,7,7,7h10.96v14.92c-19.447,1.763-32.189,10.688-43.564,18.666
	c-7.894,5.536-14.975,10.493-23.52,12.573L100.659,19.816z M225.036,299.188c-0.432,0.523-1.206,0.813-2.181,0.813H48.66
	c-0.976,0-1.75-0.289-2.181-0.814c-0.432-0.524-0.565-1.34-0.377-2.297l12.675-64.372c14.147-1.593,24.455-8.807,34.455-15.82
	c12.059-8.457,23.448-16.444,42.525-16.444c19.077,0,30.466,7.987,42.524,16.444c10.001,7.014,20.308,14.228,34.456,15.82
	l12.675,64.371C225.602,297.846,225.468,298.662,225.036,299.188z M209.842,217.809c-8.545-2.08-15.627-7.037-23.521-12.574
	c-3.175-2.227-6.456-4.527-9.959-6.726l21.928-39.367L209.842,217.809z M246.427,71.829l-11.474-6.392l9.177-26.662l20.136,11.216
	L246.427,71.829z"/>
        </symbol>
        <symbol id="icon-drumsticks" viewBox="0 0 314.001 314.001">
<path d="M307.65,273.522c-0.025-0.025-0.052-0.051-0.077-0.076L186.966,156.559l92.99-95.953c8.021-0.828,16.095-4.843,22.55-11.297
	c6.069-6.068,10.027-13.63,11.145-21.292c1.211-8.301-1.112-16.075-6.369-21.323C302.969,2.377,296.93,0,290.276,0
	c-9,0-18.338,4.177-25.62,11.459c-6.506,6.507-10.518,14.618-11.308,22.684L157,127.519L60.653,34.144
	c-0.79-8.066-4.802-16.178-11.308-22.685c-6.067-6.066-13.627-10.023-21.29-11.14c-8.307-1.207-16.08,1.113-21.33,6.368
	C1.463,11.941-0.861,19.716,0.35,28.017c1.118,7.662,5.075,15.223,11.144,21.292c6.473,6.472,14.53,10.477,22.553,11.299
	l92.989,95.951L6.428,273.445c-0.025,0.025-0.052,0.051-0.077,0.076c-4.36,4.359-6.596,10.268-6.294,16.636
	c0.29,6.117,2.913,11.95,7.384,16.422C12.153,311.295,18.547,314,24.982,314c0.001,0,0.001,0,0.002,0
	c5.935,0,11.45-2.243,15.524-6.317c0.026-0.026,0.052-0.052,0.077-0.079l116.416-120.125l116.414,120.125
	c0.025,0.026,0.051,0.053,0.076,0.079c4.099,4.099,9.566,6.318,15.499,6.318c0.378,0,0.759-0.009,1.141-0.027
	c6.12-0.291,11.954-2.917,16.426-7.392c4.474-4.475,7.098-10.308,7.387-16.425C314.246,283.789,312.01,277.881,307.65,273.522z
	 M43.394,50.136c-1.257-2.073-3.518-3.372-5.986-3.372c-0.102,0.001-0.197,0.003-0.296,0.002c-5.24,0-11.101-2.739-15.719-7.357
	c-3.895-3.894-6.515-8.782-7.191-13.412c-0.332-2.279-0.461-6.532,2.419-9.407c2.875-2.877,7.129-2.748,9.413-2.416
	c4.631,0.675,9.519,3.294,13.409,7.186c4.678,4.677,7.426,10.629,7.352,15.922c-0.032,2.264,1.051,4.343,2.815,5.658l97.33,94.328
	l-9.852,9.549L43.394,50.136z M30.577,297.815C28.75,299.62,26.529,300,24.983,300c-2.749,0-5.532-1.209-7.64-3.317
	c-2.005-2.006-3.178-4.558-3.302-7.188c-0.112-2.363,0.66-4.507,2.177-6.041L264.177,43.144c1.901-1.309,3.061-3.497,3.028-5.863
	c-0.074-5.292,2.673-11.245,7.351-15.922C279.163,16.751,285.04,14,290.276,14c2.06,0,4.965,0.449,7.108,2.595
	c2.874,2.87,2.746,7.122,2.413,9.401c-0.675,4.63-3.296,9.518-7.189,13.412c-4.607,4.607-10.486,7.357-15.727,7.357l-0.194-0.001
	c-0.031-0.001-0.063-0.001-0.095-0.001c-2.47,0-4.732,1.3-5.987,3.375L30.577,297.815z M299.96,289.495
	c-0.124,2.63-1.297,5.182-3.305,7.19c-2.005,2.006-4.558,3.18-7.189,3.305c-2.356,0.114-4.508-0.659-6.042-2.174L166.749,177.42
	l10.475-10.808l120.56,116.843C299.299,284.989,300.072,287.133,299.96,289.495z"/>
        </symbol>

        <symbol id="icon-sheet-music" viewBox="0 0 470 470">
        <path d="M195,267.5c0,4.143,3.357,7.5,7.5,7.5s7.5-3.357,7.5-7.5c0-24.562-16.708-26.374-26.691-27.456
		C173.354,238.964,170,238.601,170,227.5c0-4.143-3.357-7.5-7.5-7.5s-7.5,3.357-7.5,7.5v80.243c-3.753-1.749-8-2.743-12.5-2.743
		c-15.163,0-27.5,11.215-27.5,25s12.337,25,27.5,25s27.5-11.215,27.5-25v-77.301c4.058,1.429,8.271,1.886,11.691,2.257
		C191.646,256.036,195,256.399,195,267.5z M142.5,340c-6.893,0-12.5-4.486-12.5-10s5.607-10,12.5-10s12.5,4.486,12.5,10
		S149.393,340,142.5,340z"/>
	<path d="M122.5,295h10c4.143,0,7.5-3.357,7.5-7.5s-3.357-7.5-7.5-7.5h-10c-4.143,0-7.5,3.357-7.5,7.5S118.357,295,122.5,295z"/>
	<path d="M347.5,280h-155c-4.143,0-7.5,3.357-7.5,7.5s3.357,7.5,7.5,7.5h155c4.143,0,7.5-3.357,7.5-7.5S351.643,280,347.5,280z"/>
	<path d="M347.5,250H230.97c-4.143,0-7.5,3.357-7.5,7.5s3.357,7.5,7.5,7.5H347.5c4.143,0,7.5-3.357,7.5-7.5S351.643,250,347.5,250z"
		/>
	<path d="M347.5,325c4.143,0,7.5-3.357,7.5-7.5s-3.357-7.5-7.5-7.5h-155c-4.143,0-7.5,3.357-7.5,7.5s3.357,7.5,7.5,7.5H347.5z"/>
	<path d="M122.5,265h10c4.143,0,7.5-3.357,7.5-7.5s-3.357-7.5-7.5-7.5h-10c-4.143,0-7.5,3.357-7.5,7.5S118.357,265,122.5,265z"/>
	<path d="M260,190c0,13.785,12.337,25,27.5,25s27.5-11.215,27.5-25v-77.301c4.058,1.429,8.271,1.886,11.691,2.257
		c9.955,1.08,13.309,1.443,13.309,12.544c0,4.143,3.357,7.5,7.5,7.5s7.5-3.357,7.5-7.5c0-24.562-16.708-26.374-26.691-27.456
		C318.354,98.964,315,98.601,315,87.5c0-4.143-3.357-7.5-7.5-7.5s-7.5,3.357-7.5,7.5v80.243c-3.753-1.749-8-2.743-12.5-2.743
		C272.337,165,260,176.215,260,190z M300,190c0,5.514-5.607,10-12.5,10s-12.5-4.486-12.5-10s5.607-10,12.5-10S300,184.486,300,190z"
		/>
	<path d="M122.5,155h155c4.143,0,7.5-3.357,7.5-7.5s-3.357-7.5-7.5-7.5h-155c-4.143,0-7.5,3.357-7.5,7.5S118.357,155,122.5,155z"/>
	<path d="M347.5,140h-10c-4.143,0-7.5,3.357-7.5,7.5s3.357,7.5,7.5,7.5h10c4.143,0,7.5-3.357,7.5-7.5S351.643,140,347.5,140z"/>
	<path d="M122.5,185h121.008c4.143,0,7.5-3.357,7.5-7.5s-3.357-7.5-7.5-7.5H122.5c-4.143,0-7.5,3.357-7.5,7.5S118.357,185,122.5,185
		z"/>
	<path d="M347.5,170h-10c-4.143,0-7.5,3.357-7.5,7.5s3.357,7.5,7.5,7.5h10c4.143,0,7.5-3.357,7.5-7.5S351.643,170,347.5,170z"/>
	<path d="M122.5,125h155c4.143,0,7.5-3.357,7.5-7.5s-3.357-7.5-7.5-7.5h-155c-4.143,0-7.5,3.357-7.5,7.5S118.357,125,122.5,125z"/>
	<path d="M413.417,372.099c0.109-0.14,0.218-0.281,0.317-0.429c0.03-0.045,0.055-0.093,0.084-0.138
		c0.103-0.161,0.204-0.324,0.295-0.493c0.016-0.031,0.029-0.063,0.045-0.093c0.097-0.187,0.188-0.376,0.27-0.571
		c0.008-0.019,0.014-0.039,0.021-0.058c0.083-0.207,0.16-0.416,0.226-0.631c0.007-0.022,0.011-0.045,0.017-0.067
		c0.062-0.21,0.118-0.423,0.161-0.642c0.012-0.06,0.017-0.122,0.028-0.183c0.031-0.18,0.063-0.36,0.081-0.544
		c0.025-0.248,0.038-0.498,0.038-0.749V7.5c0-4.143-3.357-7.5-7.5-7.5h-345C58.357,0,55,3.357,55,7.5v455c0,4.143,3.357,7.5,7.5,7.5
		h250c0.251,0,0.501-0.013,0.749-0.038c0.189-0.019,0.374-0.051,0.558-0.083c0.056-0.01,0.113-0.015,0.169-0.026
		c0.218-0.043,0.432-0.099,0.643-0.162c0.022-0.006,0.044-0.01,0.066-0.017c0.213-0.065,0.422-0.142,0.626-0.225
		c0.021-0.008,0.042-0.015,0.063-0.023c0.195-0.081,0.384-0.173,0.57-0.27c0.031-0.016,0.063-0.029,0.094-0.045
		c0.171-0.091,0.335-0.193,0.498-0.298c0.044-0.028,0.09-0.052,0.133-0.081c0.149-0.1,0.29-0.209,0.431-0.319
		c0.053-0.041,0.108-0.078,0.16-0.12c0.146-0.12,0.284-0.25,0.421-0.381c0.04-0.038,0.083-0.071,0.122-0.11l95-95
		c0.039-0.039,0.072-0.082,0.11-0.122c0.131-0.137,0.261-0.274,0.381-0.421C413.338,372.208,413.375,372.152,413.417,372.099z
		 M70,15h330v345h-87.5c-4.143,0-7.5,3.357-7.5,7.5V455H70V15z M389.394,375L320,444.394V375H389.394z"/>
        </symbol>

    <symbol id="icon-hoop-sticks" viewBox="0 0 30 30">
        <path d="M14,1.5a1,1,0,0,1,2,0" style="fill: none;stroke: #303c42;stroke-linecap: round;stroke-linejoin: round"/>
        <path d="M16,28.5a1,1,0,0,1-2,0" style="fill: none;stroke: #303c42;stroke-linecap: round;stroke-linejoin: round"/>
        <path d="M28.5,14a1,1,0,0,1,0,2" style="fill: none;stroke: #303c42;stroke-linecap: round;stroke-linejoin: round"/>
          <path d="M1.5,16a1,1,0,0,1,0-2" style="fill: none;stroke: #303c42;stroke-linecap: round;stroke-linejoin: round"/>
          <path d="M23.84,4.75a1,1,0,1,1,1.41,1.41" style="fill: none;stroke: #303c42;stroke-linecap: round;stroke-linejoin: round"/>
          <path d="M6.16,25.25a1,1,0,1,1-1.41-1.41" style="fill: none;stroke: #303c42;stroke-linecap: round;stroke-linejoin: round"/>
          <path d="M25.25,23.84a1,1,0,0,1-1.41,1.41" style="fill: none;stroke: #303c42;stroke-linecap: round;stroke-linejoin: round"/>
          <path d="M4.75,6.16A1,1,0,1,1,6.16,4.75" style="fill: none;stroke: #303c42;stroke-linecap: round;stroke-linejoin: round"/>
          <path d="M23.51,25.47a13.5,13.5,0,1,0-17,0" style="fill: none;stroke: #303c42;stroke-linecap: round;stroke-linejoin: round"/>
      <path d="M8.47,26.81a13.48,13.48,0,0,0,13.05,0" style="fill: none;stroke: #303c42;stroke-linecap: round;stroke-linejoin: round"/>
      <path id="_Path_" data-name="&lt;Path&gt;" d="M5.59,27.75c.22-.54,4.25-11,6-14.3a1.27,1.27,0,0,1-.43-1.5c.26-.64,1.12-1.68,1.75-1.41s.78,1.74.52,2.38a1.21,1.21,0,0,1-1.22.76c-.74,3.71-4.08,14.5-4.3,15a1.21,1.21,0,0,1-1.6.68A1.28,1.28,0,0,1,5.59,27.75Z" style="fill: none;stroke: #303c42;stroke-linecap: round;stroke-linejoin: round"/>
      <path id="_Path_2" data-name="&lt;Path&gt;" d="M24.41,27.75c-.22-.54-4.25-11-6-14.3a1.27,1.27,0,0,0,.43-1.5c-.26-.64-1.12-1.68-1.75-1.41s-.78,1.74-.52,2.38a1.21,1.21,0,0,0,1.22.76c.74,3.71,4.08,14.5,4.3,15a1.21,1.21,0,0,0,1.6.68A1.28,1.28,0,0,0,24.41,27.75Z" style="fill: none;stroke: #303c42;stroke-linecap: round;stroke-linejoin: round"/>
    </symbol>
    </defs>
</svg>